HIERARCHY
ROOT joint_Root
{
	OFFSET 0.0 0.0 0.0
	CHANNELS 6 Xposition Yposition Zposition Zrotation Xrotation Yrotation 
	JOINT Hips
	{
		OFFSET -0.726466 93.3139 -2.00062
		CHANNELS 6 Xposition Yposition Zposition Zrotation Xrotation Yrotation 
		JOINT Spine
		{
			OFFSET 15.7357 0.0 0.0
			CHANNELS 6 Xposition Yposition Zposition Zrotation Xrotation Yrotation 
			JOINT Chest
			{
				OFFSET 8.98455 -0.406207 0.0
				CHANNELS 6 Xposition Yposition Zposition Zrotation Xrotation Yrotation 
				JOINT Neck
				{
					OFFSET 16.3773 0.0 0.0
					CHANNELS 6 Xposition Yposition Zposition Zrotation Xrotation Yrotation 
					JOINT Head
					{
						OFFSET 6.45672 0.0 0.0
						CHANNELS 6 Xposition Yposition Zposition Zrotation Xrotation Yrotation 
						End Site
						{
							OFFSET 0.0 0.0 0.0
						}
					}
				}
				JOINT Shoulder_L
				{
					OFFSET 12.9942 -0.242716 4.98039
					CHANNELS 6 Xposition Yposition Zposition Zrotation Xrotation Yrotation 
					JOINT UpperArm_L
					{
						OFFSET 5.34809 0.0 0.0
						CHANNELS 6 Xposition Yposition Zposition Zrotation Xrotation Yrotation 
						JOINT LowerArm_L
						{
							OFFSET 24.3286 1.87007e-05 0.0
							CHANNELS 6 Xposition Yposition Zposition Zrotation Xrotation Yrotation 
							JOINT Hand_L
							{
								OFFSET 22.2916 0.0 0.0
								CHANNELS 6 Xposition Yposition Zposition Zrotation Xrotation Yrotation 
								End Site
								{
									OFFSET 0.0 0.0 0.0
								}
							}
						}
					}
				}
				JOINT Shoulder_R
				{
					OFFSET 12.9945 -0.242716 -4.98039
					CHANNELS 6 Xposition Yposition Zposition Zrotation Xrotation Yrotation 
					JOINT UpperArm_R
					{
						OFFSET -5.34813 0.0 0.0
						CHANNELS 6 Xposition Yposition Zposition Zrotation Xrotation Yrotation 
						JOINT LowerArm_R
						{
							OFFSET -24.3289 0.000322201 0.0
							CHANNELS 6 Xposition Yposition Zposition Zrotation Xrotation Yrotation 
							JOINT Hand_R
							{
								OFFSET -22.2915 -0.000108084 0.0
								CHANNELS 6 Xposition Yposition Zposition Zrotation Xrotation Yrotation 
								End Site
								{
									OFFSET 0.0 0.0 0.0
								}
							}
						}
					}
				}
			}
		}
		JOINT UpperLeg_L
		{
			OFFSET -2.19248 -6.46944 0.0
			CHANNELS 6 Xposition Yposition Zposition Zrotation Xrotation Yrotation 
			JOINT LowerLeg_L
			{
				OFFSET 39.0811 0.0 -1.23785e-05
				CHANNELS 6 Xposition Yposition Zposition Zrotation Xrotation Yrotation 
				JOINT Foot_L
				{
					OFFSET 40.9854 0.0 -1.26872e-05
					CHANNELS 6 Xposition Yposition Zposition Zrotation Xrotation Yrotation 
					JOINT Toes_L
					{
						OFFSET 11.7543 0.0 0.0
						CHANNELS 6 Xposition Yposition Zposition Zrotation Xrotation Yrotation 
						End Site
						{
							OFFSET 0.0 0.0 0.0
						}
					}
				}
			}
		}
		JOINT UpperLeg_R
		{
			OFFSET -2.19251 6.46944 0.0
			CHANNELS 6 Xposition Yposition Zposition Zrotation Xrotation Yrotation 
			JOINT LowerLeg_R
			{
				OFFSET -39.0811 -0.00228153 -0.0401928
				CHANNELS 6 Xposition Yposition Zposition Zrotation Xrotation Yrotation 
				JOINT Foot_R
				{
					OFFSET -40.9854 0.0 0.0
					CHANNELS 6 Xposition Yposition Zposition Zrotation Xrotation Yrotation 
					JOINT Toes_R
					{
						OFFSET -11.7543 0.0 0.0
						CHANNELS 6 Xposition Yposition Zposition Zrotation Xrotation Yrotation 
						End Site
						{
							OFFSET 0.0 0.0 0.0
						}
					}
				}
			}
		}
	}
}
MOTION
Frames:	4
Frame Time:	0.0333333
0.000000 0.000000 0.000000 0.000000 0.000000 -0.000000 0.070684 80.565000 427.455000 -85.927600 6.310900 169.649000 15.735700 0.000005 -0.000001 96.352000 78.624800 -93.777200 8.984550 -0.406207 -0.000000 14.800800 2.642450 4.810250 16.377300 -0.000001 -0.000001 1.824620 -1.413840 -0.021072 6.456720 -0.000001 -0.000000 -5.444490 -0.794971 -6.834450 12.994200 -0.242716 4.980390 -88.529100 -3.884470 -69.240800 5.348090 -0.000007 -0.000001 -66.542800 30.200200 4.814840 24.328600 0.000019 0.000005 5.358790 4.837230 -48.044800 22.291600 -0.000001 0.000005 -3.400390 5.606030 -11.709400 12.994500 -0.242716 -4.980390 89.360900 1.743580 -69.870600 -5.348130 -0.000001 -0.000004 -42.636300 20.648000 -41.345100 -24.328900 0.000322 -0.000009 1.876020 0.778523 -67.484900 -22.291500 -0.000108 -0.000004 4.992300 5.621380 -12.718100 -2.192480 -6.469440 -0.000000 -178.627000 -5.587610 -40.416900 39.081100 -0.000007 -0.000012 -0.357589 -0.168553 115.239000 40.985400 -0.000006 -0.000013 9.384540 -5.119680 -47.449800 11.754300 -0.000000 0.000003 -0.008928 -0.095453 -20.464700 -2.192510 6.469440 -0.000001 -174.020000 7.787910 155.533000 -39.081100 -0.002282 -0.040193 0.234281 -0.136723 59.388200 -40.985400 0.000008 0.000006 2.020420 -7.794650 -94.238900 -11.754300 -0.000006 -0.000006 -0.005363 -0.064933 -19.215300
0.000000 0.000000 0.000000 0.000000 0.000000 -0.000000 -0.593938 82.310600 420.503000 -89.074900 8.901690 168.870000 15.735700 0.000005 -0.000001 101.166000 78.985500 -100.222000 8.984550 -0.406207 -0.000000 13.838700 4.267700 1.371220 16.377300 -0.000001 -0.000001 2.047000 -1.602290 0.800214 6.456720 -0.000001 -0.000000 -4.998180 -2.513000 -5.920230 12.994200 -0.242716 4.980390 -88.374300 -4.059840 -68.156700 5.348090 -0.000007 -0.000001 -65.910000 30.798100 9.627490 24.328600 0.000019 0.000005 3.770130 3.228080 -49.490900 22.291600 -0.000001 0.000005 -2.913620 5.610530 -11.992100 12.994500 -0.242716 -4.980390 89.829000 0.468883 -69.957300 -5.348130 -0.000001 -0.000004 -41.977200 17.341600 -45.426200 -24.328900 0.000322 -0.000009 2.135240 0.726117 -71.244800 -22.291500 -0.000108 -0.000004 5.684800 5.608830 -11.887700 -2.192480 -6.469440 -0.000000 176.402000 -5.744580 -48.126900 39.081100 -0.000007 -0.000012 -0.254139 -0.097115 110.916000 40.985400 -0.000006 -0.000013 7.941020 -4.865950 -53.631400 11.754300 -0.000000 0.000003 -0.007244 -0.081751 -19.905100 -2.192510 6.469440 -0.000001 179.962000 8.740700 163.101000 -39.081100 -0.002282 -0.040193 0.149008 -0.117342 51.165600 -40.985400 0.000008 0.000006 1.919040 -3.788970 -91.325500 -11.754300 -0.000006 -0.000006 -0.012094 -0.118673 -21.411100
0.000000 0.000000 0.000000 0.000000 0.000000 -0.000000 -1.224520 85.220400 412.999000 -91.650800 10.053100 167.950000 15.735700 0.000005 -0.000001 104.608000 79.570400 -105.017000 8.984550 -0.406207 -0.000000 12.474800 5.195160 -1.385940 16.377300 -0.000001 -0.000001 2.892770 -1.791880 1.405030 6.456720 -0.000001 -0.000000 -4.401200 -3.994460 -4.809490 12.994200 -0.242716 4.980390 -87.977400 -4.861790 -67.379300 5.348090 -0.000007 -0.000001 -66.519400 29.822200 13.991700 24.328600 0.000019 0.000005 2.257980 1.823790 -51.090500 22.291600 -0.000001 0.000005 -3.607310 5.609590 -11.933200 12.994500 -0.242716 -4.980390 90.180600 -0.482952 -69.498400 -5.348130 -0.000001 -0.000004 -43.066500 16.208400 -45.973300 -24.328900 0.000322 -0.000009 2.087700 0.599209 -74.007800 -22.291500 -0.000108 -0.000004 6.418150 5.601370 -11.424400 -2.192480 -6.469440 -0.000000 173.499000 -4.333970 -52.063100 39.081100 -0.000007 -0.000012 -0.100040 -0.017158 99.738100 40.985400 -0.000006 -0.000013 5.915840 -4.383840 -59.157900 11.754300 -0.000000 0.000003 -0.005386 -0.065162 -19.228300 -2.192510 6.469440 -0.000001 174.574000 10.704700 170.531000 -39.081100 -0.002282 -0.040193 0.015157 -0.013745 40.838100 -40.985400 0.000008 0.000006 2.418580 0.718468 -78.571500 -11.754300 -0.000006 -0.000006 -0.057209 -0.322593 -29.885500
0.000000 0.000000 0.000000 0.000000 0.000000 -0.000000 -1.730720 88.668300 405.476000 -92.697500 11.255300 166.770000 15.735700 0.000005 -0.000001 107.573000 80.053000 -108.891000 8.984550 -0.406207 -0.000000 11.313800 5.918950 -3.223080 16.377300 -0.000001 -0.000001 3.388120 -1.512780 1.605040 6.456720 -0.000001 -0.000000 -4.219300 -4.670730 -4.028180 12.994200 -0.242716 4.980390 -87.583000 -5.611360 -66.651700 5.348090 -0.000007 -0.000001 -67.836000 28.368400 17.358700 24.328600 0.000019 0.000005 2.431470 1.871510 -52.434800 22.291600 -0.000001 0.000005 -3.546240 5.601090 -11.407200 12.994500 -0.242716 -4.980390 90.333600 -0.885293 -69.350200 -5.348130 -0.000001 -0.000004 -44.496300 16.515900 -45.277600 -24.328900 0.000322 -0.000009 2.743740 0.699553 -75.714900 -22.291500 -0.000108 -0.000004 6.040120 5.596600 -11.139900 -2.192480 -6.469440 -0.000000 172.421000 -4.315070 -52.810800 39.081100 -0.000007 -0.000012 0.024556 -0.002815 83.440900 40.985400 -0.000006 -0.000013 6.162450 -5.057950 -63.143600 11.754300 -0.000000 0.000003 -0.006790 -0.077861 -19.746300 -2.192510 6.469440 -0.000001 171.302000 11.837800 175.436000 -39.081100 -0.002282 -0.040193 0.032396 -0.045641 32.520200 -40.985400 0.000008 0.000006 2.869370 3.909580 -60.396200 -11.754300 -0.000006 -0.000006 -0.192270 -0.632108 -43.609200
